PathFileType	4	(X/Y/Z)	C:\Users\dbl\Desktop\20210112(1)\20210112\bx_y_0_1802.trc
DataRate	CameraRate	NumFrames	NumMarkers	Units	OrigDataRate	OrigDataStartFrame	OrigNumFrames
50.00	50.00	       5	43	mm	50.00	1	       375
Frame#	Time	Top.Head			R.Acromium			L.Acromium			Sternum			R.ASIS			L.ASIS			V.Sacral			R.Thigh.Upper			R.Thigh.Front			R.Thigh.Rear			R.Knee.Lat			R.Knee.Med			R.Shank.Upper			R.Shank.Front			R.Shank.Rear			R.Ankle.Lat			R.Midfoot.Lat			R.Toe.Lat			R.Toe.Tip			R.Toe.Med			R.Ankle.Med			R.Midfoot.Sup			R.Heel			L.Thigh.Upper			L.Thigh.Front			L.Thigh.Rear			L.Knee.Lat			L.Knee.Med			L.Shank.Upper			L.Shank.Front			L.Shank.Rear			L.Ankle.Lat			L.Midfoot.Lat			L.Toe.Lat			L.Toe.Tip			L.Toe.Med			L.Ankle.Med			L.Midfoot.Sup			L.Heel			origin1 front left			origin2 front right			origin 3 back right			origin 4 back leftt			
		X1	Y1	Z1	X2	Y2	Z2	X3	Y3	Z3	X4	Y4	Z4	X5	Y5	Z5	X6	Y6	Z6	X7	Y7	Z7	X8	Y8	Z8	X9	Y9	Z9	X10	Y10	Z10	X11	Y11	Z11	X12	Y12	Z12	X13	Y13	Z13	X14	Y14	Z14	X15	Y15	Z15	X16	Y16	Z16	X17	Y17	Z17	X18	Y18	Z18	X19	Y19	Z19	X20	Y20	Z20	X21	Y21	Z21	X22	Y22	Z22	X23	Y23	Z23	X24	Y24	Z24	X25	Y25	Z25	X26	Y26	Z26	X27	Y27	Z27	X28	Y28	Z28	X29	Y29	Z29	X30	Y30	Z30	X31	Y31	Z31	X32	Y32	Z32	X33	Y33	Z33	X34	Y34	Z34	X35	Y35	Z35	X36	Y36	Z36	X37	Y37	Z37	X38	Y38	Z38	X39	Y39	Z39	X40	Y40	Z40	X41	Y41	Z41	X42	Y42	Z42	X43	Y43	Z43	

1	0.000	-654.41992	113.47417	1845.15479	-692.01886	-73.62184	1541.60022	-721.66180	289.28320	1530.75146	-626.50928	105.25117	1429.10339	-596.98834	-3.92662	1049.46423	-592.30682	221.72838	1070.67212	-795.60168	95.00307	1053.15662	-650.51978	-66.88026	858.20947	-585.07758	-0.54236	803.03229	-694.41632	-46.32262	716.64142	-702.25513	-26.01328	615.10834	-692.45490	82.80472	575.23669	-716.97644	-22.62034	566.84100	-669.12885	21.20684	519.48334	-764.63190	-32.28558	488.27258	-766.85126	-3.01962	207.44308	-664.68329	-65.29451	164.59059	-623.40613	-76.66889	160.40814	-559.72906	-41.73017	162.50246	-602.91608	19.96645	166.13141	-716.67694	80.07757	215.77972	-674.55237	57.03339	156.33174	-794.56921	57.58778	174.90533	-645.00690	280.72369	877.64075	-584.73358	219.05322	816.53583	-693.54999	271.69324	748.59985	-724.87097	249.78758	641.80847	-688.91498	143.60149	574.53510	-728.79358	245.39624	576.65747	-675.45129	205.43033	532.27051	-770.72559	253.83760	503.48532	-771.47705	221.49866	205.37476	-666.82251	298.09833	160.95631	-628.98254	306.18903	163.26453	-560.30579	260.88766	165.17633	-595.04987	221.77879	173.71468	-711.64685	151.21089	216.21011	-675.52295	171.67009	156.51515	-796.56616	171.76328	183.92485	-528.17786	304.30954	146.31851	-517.82312	-72.85273	142.77669	-876.14929	-78.62049	141.78596	-882.47778	296.06058	144.61819	
2	0.020	-653.97827	113.48365	1845.15491	-691.68188	-73.49338	1541.71521	-721.50537	289.40933	1530.91333	-626.39136	105.17828	1428.99377	-596.82965	-3.98254	1049.52136	-592.20593	221.67564	1070.72070	-795.48932	94.90098	1053.18994	-650.41748	-66.94324	858.30243	-585.05646	-0.54913	802.98596	-694.35010	-46.22414	716.69629	-702.23486	-25.98638	615.08453	-692.48126	82.73958	575.09131	-716.91846	-22.71598	566.89697	-669.10333	21.14482	519.52832	-764.62231	-32.37611	488.20807	-766.89996	-3.05587	207.60419	-664.67474	-65.29424	164.55835	-623.40479	-76.74110	160.43596	-559.76660	-41.74715	162.45749	-602.96143	20.02338	166.09206	-716.78162	80.04439	215.96790	-674.58459	57.07796	156.33115	-794.55609	57.56811	174.91035	-644.89825	280.85858	877.77478	-584.72083	219.12454	816.49786	-693.68268	271.79910	748.74591	-724.68268	249.47871	641.68323	-688.88348	143.64201	574.40369	-728.77893	245.41701	576.72626	-675.43994	205.41652	532.28528	-770.64874	253.90256	503.41782	-771.50537	221.52420	205.36024	-666.80957	298.06357	160.92648	-628.95496	306.02029	163.27594	-560.29327	260.90918	165.25264	-595.03888	221.83531	173.67746	-711.71344	151.29396	216.17001	-675.47009	171.59581	156.63652	-796.64160	171.61488	183.96518	-528.10754	304.24664	146.39342	-517.76489	-72.84449	142.78363	-876.02765	-78.68567	141.52101	-882.58234	296.07617	144.55785	
3	0.040	-653.54480	113.53123	1845.14709	-691.35730	-73.38073	1541.83411	-721.26740	289.53448	1531.08521	-626.19501	105.06124	1428.88342	-596.64838	-4.03143	1049.54993	-592.10388	221.64421	1070.72900	-795.39197	94.82798	1053.25073	-650.33508	-66.99539	858.34766	-585.01575	-0.56265	802.96094	-694.29810	-46.15161	716.72968	-702.21222	-26.01131	615.10046	-692.48920	82.68624	575.01532	-716.89447	-22.79092	566.92816	-669.10413	21.09848	519.55365	-764.61542	-32.44431	488.16571	-766.92401	-3.05732	207.69044	-664.68158	-65.28900	164.54018	-623.39514	-76.79391	160.44542	-559.78430	-41.75983	162.43567	-602.98163	20.06087	166.06023	-716.82654	80.02138	216.05714	-674.61115	57.11520	156.33020	-794.55310	57.55243	174.90700	-644.80499	280.97437	877.89325	-584.70032	219.16739	816.47308	-693.78058	271.87216	748.82941	-724.56683	249.27147	641.60406	-688.89624	143.65297	574.34973	-728.77051	245.42494	576.76312	-675.44580	205.41827	532.29639	-770.59125	253.92339	503.32501	-771.52478	221.55652	205.36356	-666.80109	298.05008	160.90916	-628.94299	305.92859	163.29227	-560.29059	260.90594	165.28487	-595.02502	221.87788	173.66541	-711.74988	151.32054	216.17805	-675.44556	171.54189	156.69975	-796.68915	171.54761	183.99335	-528.05310	304.19720	146.45013	-517.73035	-72.82234	142.78360	-875.93860	-78.73947	141.33757	-882.64600	296.10446	144.53279	
4	0.060	-653.12061	113.63276	1845.13110	-691.05835	-73.30817	1541.95081	-720.92303	289.64340	1531.24170	-625.88489	104.91612	1428.78894	-596.46313	-4.07009	1049.54041	-591.99884	221.62462	1070.68176	-795.32458	94.79733	1053.33813	-650.27814	-67.02206	858.32819	-584.94562	-0.59702	802.96912	-694.26538	-46.12366	716.75092	-702.18182	-26.08539	615.15228	-692.48163	82.65285	575.00806	-716.90265	-22.83579	566.93512	-669.13953	21.07636	519.55005	-764.60748	-32.48691	488.14810	-766.92389	-3.03236	207.68428	-664.70355	-65.27702	164.54033	-623.38257	-76.81402	160.43159	-559.78632	-41.76783	162.42982	-602.98376	20.07586	166.05280	-716.83398	80.02672	216.05655	-674.62854	57.14036	156.32860	-794.56305	57.54753	174.90720	-644.74530	281.05414	877.97571	-584.67517	219.16742	816.45880	-693.84473	271.89011	748.83557	-724.53760	249.17508	641.58362	-688.94983	143.63451	574.36707	-728.77325	245.40839	576.76764	-675.46942	205.43274	532.31055	-770.55438	253.90807	503.21338	-771.52905	221.60313	205.39952	-666.80078	298.06216	160.91205	-628.94324	305.90979	163.31192	-560.28552	260.88254	165.28210	-594.99835	221.90479	173.68083	-711.75916	151.31073	216.22173	-675.45459	171.51175	156.69455	-796.70496	171.55556	184.00870	-528.02460	304.18176	146.48615	-517.71753	-72.79569	142.79156	-875.89075	-78.76020	141.25800	-882.65039	296.14142	144.55318	
5	0.080	-652.70148	113.76928	1845.10938	-690.77466	-73.29509	1542.04163	-720.52722	289.70517	1531.33887	-625.51910	104.79881	1428.73035	-596.30963	-4.10664	1049.51184	-591.89246	221.60881	1070.58508	-795.28748	94.79913	1053.43542	-650.22467	-67.04458	858.28949	-584.86053	-0.65841	802.98944	-694.24854	-46.13792	716.77631	-702.14471	-26.17283	615.21008	-692.47363	82.64339	575.02625	-716.92126	-22.84365	566.92957	-669.19391	21.07853	519.52539	-764.59644	-32.51726	488.14117	-766.91479	-3.01633	207.62799	-664.72540	-65.26416	164.55431	-623.37335	-76.80518	160.40643	-559.78925	-41.77340	162.41925	-602.99194	20.07717	166.07602	-716.84619	80.04692	216.06052	-674.63416	57.14898	156.32663	-794.57837	57.55669	174.92810	-644.72205	281.10422	878.02008	-584.65778	219.13995	816.44568	-693.89325	271.85870	748.79932	-724.56390	249.14088	641.59692	-689.00513	143.60300	574.40131	-728.78802	245.36432	576.76221	-675.49744	205.44601	532.33014	-770.55408	253.89609	503.13577	-771.52087	221.65092	205.45346	-666.80310	298.08685	160.92914	-628.94702	305.91370	163.32861	-560.26239	260.86288	165.27042	-594.96466	221.92017	173.70345	-711.76593	151.31395	216.24307	-675.48468	171.49652	156.65730	-796.70575	171.57759	184.02289	-528.02325	304.21118	146.50291	-517.70721	-72.78137	142.81950	-875.87372	-78.73636	141.25319	-882.61267	296.17435	144.60551	
